<?xml version="1.0" encoding="UTF-8"?>
<svg xmlns="http://www.w3.org/2000/svg" xmlns:xlink="http://www.w3.org/1999/xlink" version="1.1" viewBox="0 0 1500 1500">
  <!-- Generator: Adobe Illustrator 30.4.0, SVG Export Plug-In . SVG Version: 2.1.4 Build 226)  -->
  <defs>
    <style>
      .st0 {
        fill: url(#linear-gradient1);
      }

      .st1 {
        fill: url(#linear-gradient);
      }

      .st2 {
        fill: #fff;
      }

      .st3 {
        fill: #181818;
      }

      .st4 {
        display: none;
      }
    </style>
    <linearGradient id="linear-gradient" x1="153.75" y1="749.64" x2="421.55" y2="749.64" gradientUnits="userSpaceOnUse">
      <stop offset="0" stop-color="#9776b5"/>
      <stop offset=".49" stop-color="#e2a477"/>
      <stop offset="1" stop-color="#f9bc28"/>
    </linearGradient>
    <linearGradient id="linear-gradient1" x1="506.87" y1="817.89" x2="886.62" y2="817.89" xlink:href="#linear-gradient"/>
  </defs>
  <g id="Layer_2" class="st4">
    <rect class="st3" width="1500" height="1500"/>
  </g>
  <g id="Layer_1">
    <path class="st1" d="M165.54,762.02c-6.52,0-11.8-5.28-11.8-11.8s5.28-11.8,11.8-11.8,11.8,5.28,11.8,11.8-5.28,11.8-11.8,11.8ZM171.82,721.43c6.36,0,11.51-5.15,11.51-11.51s-5.15-11.51-11.51-11.51-11.51,5.15-11.51,11.51,5.15,11.51,11.51,11.51ZM172.17,779.15c-6.14,0-11.11,4.98-11.11,11.11s4.98,11.11,11.11,11.11,11.11-4.98,11.11-11.11-4.98-11.11-11.11-11.11ZM190.33,685.2c5.94,0,10.75-4.81,10.75-10.75s-4.81-10.75-10.75-10.75-10.75,4.81-10.75,10.75,4.81,10.75,10.75,10.75ZM190.75,814.52c-5.52,0-10,4.48-10,10s4.48,10,10,10,10-4.48,10-10-4.48-10-10-10ZM218.08,657.93c5.38,0,9.73-4.36,9.73-9.73s-4.36-9.73-9.73-9.73-9.73,4.36-9.73,9.73,4.36,9.73,9.73,9.73ZM218.52,840.86c-4.9,0-8.87,3.97-8.87,8.87s3.97,8.87,8.87,8.87,8.87-3.97,8.87-8.87-3.97-8.87-8.87-8.87ZM250.45,641.26c4.72,0,8.55-3.83,8.55-8.55s-3.83-8.55-8.55-8.55-8.55,3.83-8.55,8.55,3.83,8.55,8.55,8.55ZM205.89,734.1c0-4.37-3.54-7.91-7.91-7.91s-7.91,3.54-7.91,7.91,3.54,7.91,7.91,7.91,7.91-3.54,7.91-7.91ZM250.06,857.42c-4.34,0-7.86,3.52-7.86,7.86s3.52,7.86,7.86,7.86,7.86-3.52,7.86-7.86-3.52-7.86-7.86-7.86ZM198.17,771.89c4.36,0,7.89-3.53,7.89-7.89s-3.53-7.89-7.89-7.89-7.89,3.53-7.89,7.89,3.53,7.89,7.89,7.89ZM206.72,713.77c4.27,0,7.74-3.46,7.74-7.74s-3.46-7.74-7.74-7.74-7.74,3.46-7.74,7.74,3.46,7.74,7.74,7.74ZM214.48,791.92c0-4.18-3.38-7.56-7.56-7.56s-7.56,3.38-7.56,7.56,3.38,7.56,7.56,7.56,7.56-3.38,7.56-7.56ZM215.41,682.93c0,4.13,3.35,7.48,7.48,7.48s7.48-3.35,7.48-7.48-3.35-7.48-7.48-7.48-7.48,3.35-7.48,7.48ZM222.81,807.93c-3.95,0-7.16,3.2-7.16,7.16s3.2,7.16,7.16,7.16,7.16-3.2,7.16-7.16-3.2-7.16-7.16-7.16ZM281.61,635c3.86,0,6.98-3.13,6.98-6.98s-3.13-6.98-6.98-6.98-6.98,3.13-6.98,6.98,3.13,6.98,6.98,6.98ZM245.05,672.86c3.81,0,6.9-3.09,6.9-6.9s-3.09-6.9-6.9-6.9-6.9,3.09-6.9,6.9,3.09,6.9,6.9,6.9ZM281.13,865.1c-3.63,0-6.58,2.94-6.58,6.58s2.94,6.58,6.58,6.58,6.58-2.94,6.58-6.58-2.94-6.58-6.58-6.58ZM251.11,832.49c0-3.63-2.94-6.57-6.57-6.57s-6.57,2.94-6.57,6.57,2.94,6.57,6.57,6.57,6.57-2.94,6.57-6.57ZM269.64,662.58c3.34,0,6.05-2.71,6.05-6.05s-2.71-6.05-6.05-6.05-6.05,2.71-6.05,6.05,2.71,6.05,6.05,6.05ZM268.77,836.98c-3.22,0-5.83,2.61-5.83,5.83s2.61,5.83,5.83,5.83,5.83-2.61,5.83-5.83-2.61-5.83-5.83-5.83ZM309.45,635.5c3.1,0,5.6-2.51,5.6-5.6s-2.51-5.6-5.6-5.6-5.6,2.51-5.6,5.6,2.51,5.6,5.6,5.6ZM243.57,795.89c-3.07,0-5.56,2.49-5.56,5.56s2.49,5.56,5.56,5.56,5.56-2.49,5.56-5.56-2.49-5.56-5.56-5.56ZM309.84,865.48c-3.05,0-5.52,2.47-5.52,5.52s2.47,5.52,5.52,5.52,5.52-2.47,5.52-5.52-2.47-5.52-5.52-5.52ZM230.77,778.95c-2.95,0-5.33,2.39-5.33,5.33s2.39,5.33,5.33,5.33,5.33-2.39,5.33-5.33-2.39-5.33-5.33-5.33ZM267.33,814.77c0-2.93-2.37-5.3-5.3-5.3s-5.3,2.37-5.3,5.3,2.37,5.3,5.3,5.3,5.3-2.37,5.3-5.3ZM230.4,725.48c0-2.92-2.37-5.29-5.29-5.29s-5.29,2.37-5.29,5.29,2.37,5.29,5.29,5.29,5.29-2.37,5.29-5.29ZM223.3,770.46c2.92,0,5.28-2.36,5.28-5.28s-2.36-5.28-5.28-5.28-5.28,2.36-5.28,5.28,2.36,5.28,5.28,5.28ZM293.27,659.29c2.91,0,5.27-2.36,5.27-5.27s-2.36-5.27-5.27-5.27-5.27,2.36-5.27,5.27,2.36,5.27,5.27,5.27ZM226.52,745.24c0-2.88-2.34-5.22-5.22-5.22s-5.22,2.34-5.22,5.22,2.34,5.22,5.22,5.22,5.22-2.34,5.22-5.22ZM234.39,712.98c2.87,0,5.2-2.33,5.2-5.2s-2.33-5.2-5.2-5.2-5.2,2.33-5.2,5.2,2.33,5.2,5.2,5.2ZM292.63,841.56c-2.83,0-5.12,2.29-5.12,5.12s2.29,5.12,5.12,5.12,5.12-2.29,5.12-5.12-2.29-5.12-5.12-5.12ZM253.11,692.96c0-2.77-2.25-5.02-5.02-5.02s-5.02,2.25-5.02,5.02,2.25,5.02,5.02,5.02,5.02-2.25,5.02-5.02ZM264.96,687.4c2.62,0,4.74-2.12,4.74-4.74s-2.12-4.74-4.74-4.74-4.74,2.12-4.74,4.74,2.12,4.74,4.74,4.74ZM334.96,861.19c-2.56,0-4.63,2.08-4.63,4.63s2.08,4.63,4.63,4.63,4.63-2.08,4.63-4.63-2.08-4.63-4.63-4.63ZM310.6,656.03c0,2.54,2.06,4.6,4.6,4.6s4.6-2.06,4.6-4.6-2.06-4.6-4.6-4.6-4.6,2.06-4.6,4.6ZM333.73,640.73c2.52,0,4.57-2.05,4.57-4.57s-2.05-4.57-4.57-4.57-4.57,2.05-4.57,4.57,2.05,4.57,4.57,4.57ZM281.79,817.77c-2.5,0-4.54,2.03-4.54,4.54s2.03,4.54,4.54,4.54,4.54-2.03,4.54-4.54-2.03-4.54-4.54-4.54ZM314.92,841.09c-2.5,0-4.52,2.02-4.52,4.52s2.02,4.52,4.52,4.52,4.52-2.02,4.52-4.52-2.02-4.52-4.52-4.52ZM283.25,673.1c-2.34,0-4.24,1.9-4.24,4.24s1.9,4.24,4.24,4.24,4.24-1.9,4.24-4.24-1.9-4.24-4.24-4.24ZM334.9,657.85c-2.3,0-4.16,1.86-4.16,4.16s1.86,4.16,4.16,4.16,4.16-1.86,4.16-4.16-1.86-4.16-4.16-4.16ZM335,844.54c2.26,0,4.09-1.83,4.09-4.09s-1.83-4.09-4.09-4.09-4.09,1.83-4.09,4.09,1.83,4.09,4.09,4.09ZM354.73,649.58c2.21,0,4.01-1.79,4.01-4.01s-1.79-4.01-4.01-4.01-4.01,1.79-4.01,4.01,1.79,4.01,4.01,4.01ZM356.41,852.79c-2.2,0-3.98,1.78-3.98,3.98s1.78,3.98,3.98,3.98,3.98-1.78,3.98-3.98-1.78-3.98-3.98-3.98ZM300.57,820.77c-2.14,0-3.87,1.73-3.87,3.87s1.73,3.87,3.87,3.87,3.87-1.73,3.87-3.87-1.73-3.87-3.87-3.87ZM356.79,831.43c0-2.1-1.71-3.81-3.81-3.81s-3.81,1.71-3.81,3.81,1.71,3.81,3.81,3.81,3.81-1.71,3.81-3.81ZM352.39,675.25c2.08,0,3.77-1.69,3.77-3.77s-1.69-3.77-3.77-3.77-3.77,1.69-3.77,3.77,1.69,3.77,3.77,3.77ZM301.14,680.19c2.01,0,3.64-1.63,3.64-3.64s-1.63-3.64-3.64-3.64-3.64,1.63-3.64,3.64,1.63,3.64,3.64,3.64ZM372.8,660.95c1.9,0,3.44-1.54,3.44-3.44s-1.54-3.44-3.44-3.44-3.44,1.54-3.44,3.44,1.54,3.44,3.44,3.44ZM374.72,841.66c-1.9,0-3.44,1.54-3.44,3.44s1.54,3.44,3.44,3.44,3.44-1.54,3.44-3.44-1.54-3.44-3.44-3.44ZM368.23,816.3c-1.9,0-3.44,1.54-3.44,3.44s1.54,3.44,3.44,3.44,3.44-1.54,3.44-3.44-1.54-3.44-3.44-3.44ZM318.06,819.44c-1.89,0-3.42,1.53-3.42,3.42s1.53,3.42,3.42,3.42,3.42-1.53,3.42-3.42-1.53-3.42-3.42-3.42ZM367.24,686.47c1.86,0,3.37-1.51,3.37-3.37s-1.51-3.37-3.37-3.37-3.37,1.51-3.37,3.37,1.51,3.37,3.37,3.37ZM379,700.62c1.85,0,3.35-1.5,3.35-3.35s-1.5-3.35-3.35-3.35-3.35,1.5-3.35,3.35,1.5,3.35,3.35,3.35ZM380.39,801.87c-1.81,0-3.29,1.47-3.29,3.29s1.47,3.29,3.29,3.29,3.29-1.47,3.29-3.29-1.47-3.29-3.29-3.29ZM314.51,679.13c0,1.8,1.46,3.26,3.26,3.26s3.26-1.46,3.26-3.26-1.46-3.26-3.26-3.26-3.26,1.46-3.26,3.26ZM391.6,713.56c0-1.79-1.45-3.25-3.25-3.25s-3.25,1.45-3.25,3.25,1.45,3.25,3.25,3.25,3.25-1.45,3.25-3.25ZM389.57,792.08c1.76,0,3.2-1.43,3.2-3.2s-1.43-3.2-3.2-3.2-3.2,1.43-3.2,3.2,1.43,3.2,3.2,3.2ZM395.42,767.59c-1.74,0-3.15,1.41-3.15,3.15s1.41,3.15,3.15,3.15,3.15-1.41,3.15-3.15-1.41-3.15-3.15-3.15ZM337.24,817.18c0-1.74-1.41-3.14-3.14-3.14s-3.14,1.41-3.14,3.14,1.41,3.14,3.14,3.14,3.14-1.41,3.14-3.14ZM394.74,734.91c1.74,0,3.16-1.41,3.16-3.16s-1.41-3.16-3.16-3.16-3.16,1.41-3.16,3.16,1.41,3.16,3.16,3.16ZM388.03,675.25c1.69,0,3.06-1.37,3.06-3.06s-1.37-3.06-3.06-3.06-3.06,1.37-3.06,3.06,1.37,3.06,3.06,3.06ZM390.13,827.4c-1.68,0-3.04,1.36-3.04,3.04s1.36,3.04,3.04,3.04,3.04-1.36,3.04-3.04-1.36-3.04-3.04-3.04ZM397.16,748.28c-1.69,0-3.06,1.37-3.06,3.06s1.37,3.06,3.06,3.06,3.06-1.37,3.06-3.06-1.37-3.06-3.06-3.06ZM333.06,687.89c1.65,0,2.99-1.34,2.99-2.99s-1.34-2.99-2.99-2.99-2.99,1.34-2.99,2.99,1.34,2.99,2.99,2.99ZM351.11,808.46c0-1.6-1.3-2.9-2.9-2.9s-2.9,1.3-2.9,2.9,1.3,2.9,2.9,2.9,2.9-1.3,2.9-2.9ZM400.19,691.75c1.57,0,2.85-1.28,2.85-2.85s-1.28-2.85-2.85-2.85-2.85,1.28-2.85,2.85,1.28,2.85,2.85,2.85ZM402.14,810.48c-1.58,0-2.87,1.28-2.87,2.87s1.28,2.87,2.87,2.87,2.87-1.28,2.87-2.87-1.28-2.87-2.87-2.87ZM411.41,791.25c-1.51,0-2.74,1.23-2.74,2.74s1.23,2.74,2.74,2.74,2.74-1.23,2.74-2.74-1.23-2.74-2.74-2.74ZM349.56,693.41c0-1.53-1.24-2.77-2.77-2.77s-2.77,1.24-2.77,2.77,1.24,2.77,2.77,2.77,2.77-1.24,2.77-2.77ZM413.08,708.64c0-1.5-1.22-2.72-2.72-2.72s-2.72,1.22-2.72,2.72,1.22,2.72,2.72,2.72,2.72-1.22,2.72-2.72ZM360.03,794.05c-1.49,0-2.7,1.21-2.7,2.7s1.21,2.7,2.7,2.7,2.7-1.21,2.7-2.7-1.21-2.7-2.7-2.7ZM370.23,718.63c0-1.44-1.17-2.61-2.61-2.61s-2.61,1.17-2.61,2.61,1.17,2.61,2.61,2.61,2.61-1.17,2.61-2.61ZM417.3,770.53c-1.46,0-2.65,1.19-2.65,2.65s1.19,2.65,2.65,2.65,2.65-1.19,2.65-2.65-1.19-2.65-2.65-2.65ZM368.81,785.49c1.44,0,2.61-1.17,2.61-2.61s-1.17-2.61-2.61-2.61-2.61,1.17-2.61,2.61,1.17,2.61,2.61,2.61ZM378.81,750.82c0-1.45-1.17-2.62-2.62-2.62s-2.62,1.17-2.62,2.62,1.17,2.62,2.62,2.62,2.62-1.17,2.62-2.62ZM355.81,704.84c0,1.44,1.17,2.61,2.61,2.61s2.61-1.17,2.61-2.61-1.17-2.61-2.61-2.61-2.61,1.17-2.61,2.61ZM374.43,769.98c1.44,0,2.61-1.17,2.61-2.61s-1.17-2.61-2.61-2.61-2.61,1.17-2.61,2.61,1.17,2.61,2.61,2.61ZM416.54,732.29c1.42,0,2.58-1.15,2.58-2.58s-1.15-2.58-2.58-2.58-2.58,1.15-2.58,2.58,1.15,2.58,2.58,2.58ZM419,748.94c-1.41,0-2.55,1.14-2.55,2.55s1.14,2.55,2.55,2.55,2.55-1.14,2.55-2.55-1.14-2.55-2.55-2.55ZM373.69,736.59c1.41,0,2.55-1.14,2.55-2.55s-1.14-2.55-2.55-2.55-2.55,1.14-2.55,2.55,1.14,2.55,2.55,2.55Z"/>
    <g>
      <path class="st2" d="M578.88,749.68h-72.01v-99.37h15.44v85.4h56.57v13.98Z"/>
      <path class="st2" d="M618.51,713.75v-63.44h15.22v62.79c0,14.56,10.39,23.78,26.56,23.78s26.49-9.22,26.49-23.78v-62.79h15.22v63.44c0,22.76-16.25,37.39-41.71,37.39s-41.78-14.64-41.78-37.39Z"/>
      <path class="st2" d="M756.64,650.31h18.22l34.32,70.69,34.39-70.69h18.15v99.37h-15.51v-71.2l-31.54,64.18h-10.98l-31.54-64.18v71.2h-15.51v-99.37Z"/>
      <path class="st2" d="M932.82,749.68h-15.37v-99.37h15.37v99.37Z"/>
      <path class="st2" d="M988.55,749.68v-99.37h15.37l60.52,75.74v-75.74h15.37v99.37h-15.51l-60.37-75.01v75.01h-15.37Z"/>
      <path class="st2" d="M1123.39,749.68l41.05-99.37h16.68l41.05,99.37h-16.39l-7.9-20.71h-50.2l-7.9,20.71h-16.39ZM1193.27,716.17l-20.49-48.66-20.49,48.66h40.98Z"/>
      <path class="st2" d="M1308.5,650.38c20.49,0,33.81,11.56,33.81,30.15,0,13.61-7.83,23.71-20.12,28.03l24.08,41.13h-17.86l-22.47-39h-24.81v39h-15.37v-99.3h42.74ZM1281.13,664.21v32.78h26.64c12.22,0,18.51-6.81,18.51-16.46s-6.29-16.32-18.51-16.32h-26.64Z"/>
    </g>
    <path class="st0" d="M532.34,787.65l-25.47,60.3h6.7l7.5-18.17h29.37l7.5,18.17h6.7l-25.47-60.3h-6.84ZM523.12,824.84l12.4-30.03h.48l12.4,30.03h-25.29ZM659.84,790.11c-3.34-1.64-7.49-2.46-12.46-2.46h-22.6v60.3h6.39v-23.05h16.31c4.95,0,9.08-.82,12.41-2.46,3.33-1.64,5.83-3.87,7.52-6.68,1.69-2.82,2.53-5.98,2.53-9.5s-.85-6.67-2.55-9.48c-1.7-2.81-4.22-5.03-7.56-6.67ZM661.86,813.3c-1.2,2.06-3,3.69-5.42,4.87-2.42,1.19-5.46,1.78-9.13,1.78h-16.14v-27.35h16.03c3.71,0,6.79.59,9.21,1.77,2.43,1.18,4.24,2.8,5.44,4.86,1.2,2.06,1.79,4.41,1.79,7.04s-.6,4.98-1.79,7.04ZM768.18,790.11c-3.34-1.64-7.49-2.46-12.46-2.46h-22.6v60.3h6.39v-23.05h16.31c4.95,0,9.08-.82,12.41-2.46,3.33-1.64,5.83-3.87,7.52-6.68,1.69-2.82,2.53-5.98,2.53-9.5s-.85-6.67-2.55-9.48c-1.7-2.81-4.22-5.03-7.56-6.67ZM770.2,813.3c-1.2,2.06-3,3.69-5.42,4.87-2.42,1.19-5.46,1.78-9.13,1.78h-16.14v-27.35h16.03c3.71,0,6.79.59,9.21,1.77,2.43,1.18,4.24,2.8,5.44,4.86,1.2,2.06,1.79,4.41,1.79,7.04s-.6,4.98-1.79,7.04ZM886.62,831.94c0,3.22-.97,6.12-2.91,8.69-1.94,2.57-4.72,4.61-8.34,6.11-3.62,1.5-7.97,2.25-13.03,2.25-4.76,0-8.9-.68-12.41-2.05-3.51-1.36-6.27-3.25-8.27-5.67-2.01-2.41-3.13-5.21-3.38-8.39h6.56c.23,2.37,1.14,4.39,2.73,6.04,1.59,1.65,3.67,2.9,6.22,3.75,2.55.85,5.4,1.28,8.55,1.28,3.49,0,6.59-.51,9.32-1.52,2.72-1.01,4.87-2.43,6.43-4.24,1.56-1.82,2.34-3.93,2.34-6.34,0-2.04-.61-3.76-1.85-5.14-1.23-1.38-2.94-2.55-5.14-3.49-2.2-.94-4.75-1.78-7.64-2.5l-8.38-2.12c-5.49-1.41-9.76-3.37-12.79-5.86-3.03-2.49-4.55-5.67-4.55-9.54,0-3.24,1.01-6.09,3.03-8.55,2.02-2.46,4.75-4.39,8.2-5.77,3.45-1.38,7.33-2.08,11.64-2.08s8.21.69,11.56,2.06c3.35,1.37,6.01,3.27,7.98,5.67,1.97,2.4,3.03,5.14,3.16,8.2h-6.19c-.39-3.36-2.11-6.03-5.16-8.01-3.05-1.98-6.89-2.97-11.52-2.97-3.26,0-6.13.48-8.6,1.44-2.47.96-4.41,2.29-5.81,3.99-1.4,1.7-2.1,3.63-2.1,5.79,0,1.59.4,2.98,1.2,4.18.8,1.2,1.87,2.22,3.23,3.08,1.35.85,2.86,1.59,4.51,2.19,1.65.61,3.32,1.12,5.01,1.53l7.38,1.83c2.23.53,4.47,1.21,6.7,2.03,2.23.83,4.28,1.86,6.14,3.11,1.86,1.25,3.35,2.77,4.48,4.56,1.13,1.8,1.69,3.95,1.69,6.46Z"/>
  </g>
</svg>