<?xml version="1.0" encoding="UTF-8"?>
<svg xmlns="http://www.w3.org/2000/svg" xmlns:xlink="http://www.w3.org/1999/xlink" version="1.1" viewBox="0 0 1500 1500">
  <!-- Generator: Adobe Illustrator 30.4.0, SVG Export Plug-In . SVG Version: 2.1.4 Build 226)  -->
  <defs>
    <style>
      .st0 {
        fill: url(#linear-gradient);
      }

      .st1 {
        fill: #181818;
      }

      .st2 {
        display: none;
      }
    </style>
    <linearGradient id="linear-gradient" x1="67.87" y1="750" x2="1432.13" y2="750" gradientUnits="userSpaceOnUse">
      <stop offset="0" stop-color="#9776b5"/>
      <stop offset=".49" stop-color="#e2a477"/>
      <stop offset="1" stop-color="#f9bc28"/>
    </linearGradient>
  </defs>
  <g id="Layer_2" class="st2">
    <rect class="st1" width="1500" height="1500"/>
  </g>
  <g id="Layer_1">
    <path class="st0" d="M127.97,813.02c-33.19,0-60.1-26.91-60.1-60.1s26.91-60.1,60.1-60.1,60.1,26.91,60.1,60.1-26.91,60.1-60.1,60.1ZM159.94,606.25c32.38,0,58.63-26.25,58.63-58.63s-26.25-58.63-58.63-58.63-58.63,26.25-58.63,58.63,26.25,58.63,58.63,58.63ZM161.72,900.29c-31.27,0-56.62,25.35-56.62,56.62s25.35,56.62,56.62,56.62,56.62-25.35,56.62-56.62-25.35-56.62-56.62-56.62ZM254.25,421.68c30.25,0,54.77-24.52,54.77-54.77s-24.52-54.77-54.77-54.77-54.77,24.52-54.77,54.77,24.52,54.77,54.77,54.77ZM256.36,1080.48c-28.14,0-50.95,22.81-50.95,50.95s22.81,50.95,50.95,50.95,50.95-22.81,50.95-50.95-22.81-50.95-50.95-50.95ZM395.59,282.77c27.38,0,49.58-22.2,49.58-49.58s-22.2-49.58-49.58-49.58-49.58,22.2-49.58,49.58,22.2,49.58,49.58,49.58ZM397.85,1214.66c-24.97,0-45.21,20.24-45.21,45.21s20.24,45.21,45.21,45.21,45.21-20.24,45.21-45.21-20.24-45.21-45.21-45.21ZM560.5,197.89c24.04,0,43.53-19.49,43.53-43.53s-19.49-43.53-43.53-43.53-43.53,19.49-43.53,43.53,19.49,43.53,43.53,43.53ZM333.5,670.81c0-22.25-18.03-40.28-40.28-40.28s-40.28,18.03-40.28,40.28,18.03,40.28,40.28,40.28,40.28-18.03,40.28-40.28ZM558.52,1299.01c-22.13,0-40.06,17.94-40.06,40.06s17.94,40.06,40.06,40.06,40.06-17.94,40.06-40.06-17.94-40.06-40.06-40.06ZM294.19,863.3c22.19,0,40.17-17.99,40.17-40.17s-17.99-40.17-40.17-40.17-40.17,17.99-40.17,40.17,17.99,40.17,40.17,40.17ZM337.75,567.27c21.77,0,39.42-17.65,39.42-39.42s-17.65-39.42-39.42-39.42-39.42,17.65-39.42,39.42,17.65,39.42,39.42,39.42ZM377.28,965.33c0-21.27-17.24-38.51-38.51-38.51s-38.51,17.24-38.51,38.51,17.24,38.51,38.51,38.51,38.51-17.24,38.51-38.51ZM381.99,410.12c0,21.05,17.07,38.12,38.12,38.12s38.12-17.07,38.12-38.12-17.07-38.12-38.12-38.12-38.12,17.07-38.12,38.12ZM419.69,1046.91c-20.13,0-36.46,16.32-36.46,36.46s16.32,36.46,36.46,36.46,36.46-16.32,36.46-36.46-16.32-36.46-36.46-36.46ZM719.26,165.99c19.64,0,35.56-15.92,35.56-35.56s-15.92-35.56-35.56-35.56-35.56,15.92-35.56,35.56,15.92,35.56,35.56,35.56ZM532.98,358.85c19.41,0,35.14-15.73,35.14-35.14s-15.73-35.14-35.14-35.14-35.14,15.73-35.14,35.14,15.73,35.14,35.14,35.14ZM716.81,1338.14c-18.5,0-33.49,15-33.49,33.49s15,33.49,33.49,33.49,33.49-15,33.49-33.49-15-33.49-33.49-33.49ZM563.88,1172.03c0-18.5-14.99-33.49-33.49-33.49s-33.49,14.99-33.49,33.49,14.99,33.49,33.49,33.49,33.49-14.99,33.49-33.49ZM658.29,306.47c17.03,0,30.84-13.81,30.84-30.84s-13.81-30.84-30.84-30.84-30.84,13.81-30.84,30.84,13.81,30.84,30.84,30.84ZM653.82,1194.92c-16.39,0-29.68,13.29-29.68,29.68s13.29,29.68,29.68,29.68,29.68-13.29,29.68-29.68-13.29-29.68-29.68-29.68ZM861.06,168.51c15.77,0,28.55-12.78,28.55-28.55s-12.78-28.55-28.55-28.55-28.55,12.78-28.55,28.55,12.78,28.55,28.55,28.55ZM525.45,985.6c-15.65,0-28.33,12.69-28.33,28.33s12.69,28.33,28.33,28.33,28.33-12.69,28.33-28.33-12.69-28.33-28.33-28.33ZM863.04,1340.11c-15.54,0-28.13,12.6-28.13,28.13s12.6,28.13,28.13,28.13,28.13-12.6,28.13-28.13-12.6-28.13-28.13-28.13ZM460.26,899.28c-15,0-27.17,12.16-27.17,27.17s12.16,27.17,27.17,27.17,27.17-12.16,27.17-27.17-12.16-27.17-27.17-27.17ZM646.5,1081.77c0-14.92-12.09-27.01-27.01-27.01s-27.01,12.09-27.01,27.01,12.09,27.01,27.01,27.01,27.01-12.09,27.01-27.01ZM458.36,626.92c0-14.87-12.05-26.92-26.92-26.92s-26.92,12.05-26.92,26.92,12.05,26.92,26.92,26.92,26.92-12.05,26.92-26.92ZM422.19,856.04c14.86,0,26.9-12.04,26.9-26.9s-12.04-26.9-26.9-26.9-26.9,12.04-26.9,26.9,12.04,26.9,26.9,26.9ZM778.66,289.74c14.82,0,26.83-12.01,26.83-26.83s-12.01-26.83-26.83-26.83-26.83,12.01-26.83,26.83,12.01,26.83,26.83,26.83ZM438.59,727.56c0-14.7-11.91-26.61-26.61-26.61s-26.61,11.91-26.61,26.61,11.91,26.61,26.61,26.61,26.61-11.91,26.61-26.61ZM478.69,563.22c14.64,0,26.51-11.87,26.51-26.51s-11.87-26.51-26.51-26.51-26.51,11.87-26.51,26.51,11.87,26.51,26.51,26.51ZM775.37,1218.22c-14.41,0-26.1,11.68-26.1,26.1s11.68,26.1,26.1,26.1,26.1-11.68,26.1-26.1-11.68-26.1-26.1-26.1ZM574.06,461.23c0-14.12-11.44-25.56-25.56-25.56s-25.56,11.44-25.56,25.56,11.44,25.56,25.56,25.56,25.56-11.44,25.56-25.56ZM634.42,432.91c13.33,0,24.13-10.8,24.13-24.13s-10.8-24.13-24.13-24.13-24.13,10.8-24.13,24.13,10.8,24.13,24.13,24.13ZM991.03,1318.26c-13.04,0-23.61,10.57-23.61,23.61s10.57,23.61,23.61,23.61,23.61-10.57,23.61-23.61-10.57-23.61-23.61-23.61ZM866.93,273.1c0,12.95,10.5,23.45,23.45,23.45s23.45-10.5,23.45-23.45-10.5-23.45-23.45-23.45-23.45,10.5-23.45,23.45ZM984.77,195.17c12.85,0,23.27-10.42,23.27-23.27s-10.42-23.27-23.27-23.27-23.27,10.42-23.27,23.27,10.42,23.27,23.27,23.27ZM720.18,1097.06c-12.76,0-23.1,10.34-23.1,23.1s10.34,23.1,23.1,23.1,23.1-10.34,23.1-23.1-10.34-23.1-23.1-23.1ZM888.94,1215.81c-12.72,0-23.02,10.31-23.02,23.02s10.31,23.02,23.02,23.02,23.02-10.31,23.02-23.02-10.31-23.02-23.02-23.02ZM727.62,360.04c-11.94,0-21.61,9.68-21.61,21.61s9.68,21.61,21.61,21.61,21.61-9.68,21.61-21.61-9.68-21.61-21.61-21.61ZM990.71,282.36c-11.71,0-21.2,9.49-21.2,21.2s9.49,21.2,21.2,21.2,21.2-9.49,21.2-21.2-9.49-21.2-21.2-21.2ZM991.23,1233.4c11.52,0,20.85-9.34,20.85-20.85s-9.34-20.85-20.85-20.85-20.85,9.34-20.85,20.85,9.34,20.85,20.85,20.85ZM1091.71,240.25c11.28,0,20.42-9.14,20.42-20.42s-9.14-20.42-20.42-20.42-20.42,9.14-20.42,20.42,9.14,20.42,20.42,20.42ZM1100.31,1275.45c-11.2,0-20.28,9.08-20.28,20.27s9.08,20.28,20.28,20.28,20.28-9.08,20.28-20.28-9.08-20.27-20.28-20.27ZM815.82,1112.35c-10.9,0-19.73,8.83-19.73,19.73s8.83,19.73,19.73,19.73,19.73-8.83,19.73-19.73-8.83-19.73-19.73-19.73ZM1102.24,1166.65c0-10.72-8.69-19.41-19.41-19.41s-19.41,8.69-19.41,19.41,8.69,19.41,19.41,19.41,19.41-8.69,19.41-19.41ZM1079.8,371.03c10.6,0,19.2-8.6,19.2-19.2s-8.6-19.2-19.2-19.2-19.2,8.6-19.2,19.2,8.6,19.2,19.2,19.2ZM818.75,396.19c10.23,0,18.52-8.29,18.52-18.52s-8.29-18.52-18.52-18.52-18.52,8.29-18.52,18.52,8.29,18.52,18.52,18.52ZM1183.78,298.19c9.69,0,17.55-7.86,17.55-17.55s-7.86-17.55-17.55-17.55-17.55,7.86-17.55,17.55,7.86,17.55,17.55,17.55ZM1193.55,1218.76c-9.67,0-17.51,7.84-17.51,17.51s7.84,17.51,17.51,17.51,17.51-7.84,17.51-17.51-7.84-17.51-17.51-17.51ZM1160.51,1089.55c-9.67,0-17.51,7.84-17.51,17.51s7.84,17.51,17.51,17.51,17.51-7.84,17.51-17.51-7.84-17.51-17.51-17.51ZM904.94,1105.57c-9.63,0-17.43,7.8-17.43,17.43s7.8,17.43,17.43,17.43,17.43-7.8,17.43-17.43-7.8-17.43-17.43-17.43ZM1155.47,428.16c9.47,0,17.15-7.68,17.15-17.15s-7.68-17.15-17.15-17.15-17.15,7.68-17.15,17.15,7.68,17.15,17.15,17.15ZM1215.38,500.24c9.41,0,17.04-7.63,17.04-17.04s-7.63-17.04-17.04-17.04-17.04,7.63-17.04,17.04,7.63,17.04,17.04,17.04ZM1222.44,1016.06c-9.24,0-16.74,7.49-16.74,16.74s7.49,16.74,16.74,16.74,16.74-7.49,16.74-16.74-7.49-16.74-16.74-16.74ZM886.82,390.77c0,9.17,7.43,16.6,16.6,16.6s16.6-7.43,16.6-16.6-7.43-16.6-16.6-16.6-16.6,7.43-16.6,16.6ZM1279.53,566.19c0-9.13-7.4-16.53-16.53-16.53s-16.53,7.4-16.53,16.53,7.4,16.53,16.53,16.53,16.53-7.4,16.53-16.53ZM1269.23,966.19c8.99,0,16.28-7.29,16.28-16.28s-7.29-16.28-16.28-16.28-16.28,7.29-16.28,16.28,7.29,16.28,16.28,16.28ZM1299.02,841.39c-8.88,0-16.07,7.19-16.07,16.07s7.19,16.07,16.07,16.07,16.07-7.19,16.07-16.07-7.19-16.07-16.07-16.07ZM1002.63,1094.04c0-8.84-7.17-16.01-16.01-16.01s-16.01,7.17-16.01,16.01,7.17,16.01,16.01,16.01,16.01-7.17,16.01-16.01ZM1295.56,674.92c8.88,0,16.08-7.2,16.08-16.08s-7.2-16.08-16.08-16.08-16.08,7.2-16.08,16.08,7.2,16.08,16.08,16.08ZM1261.35,371.02c8.62,0,15.61-6.99,15.61-15.61s-6.99-15.61-15.61-15.61-15.61,6.99-15.61,15.61,6.99,15.61,15.61,15.61ZM1272.06,1146.1c-8.55,0-15.48,6.93-15.48,15.48s6.93,15.48,15.48,15.48,15.48-6.93,15.48-15.48-6.93-15.48-15.48-15.48ZM1307.86,743.05c-8.6,0-15.57,6.97-15.57,15.57s6.97,15.57,15.57,15.57,15.57-6.97,15.57-15.57-6.97-15.57-15.57-15.57ZM981.36,435.42c8.41,0,15.23-6.82,15.23-15.23s-6.82-15.23-15.23-15.23-15.23,6.82-15.23,15.23,6.82,15.23,15.23,15.23ZM1073.31,1049.59c0-8.16-6.62-14.78-14.78-14.78s-14.78,6.62-14.78,14.78,6.62,14.78,14.78,14.78,14.78-6.62,14.78-14.78ZM1323.31,455.08c8.02,0,14.53-6.5,14.53-14.53s-6.5-14.53-14.53-14.53-14.53,6.5-14.53,14.53,6.5,14.53,14.53,14.53ZM1333.24,1059.92c-8.07,0-14.61,6.54-14.61,14.61s6.54,14.61,14.61,14.61,14.61-6.54,14.61-14.61-6.54-14.61-14.61-14.61ZM1380.47,961.93c-7.71,0-13.96,6.25-13.96,13.96s6.25,13.96,13.96,13.96,13.96-6.25,13.96-13.96-6.25-13.96-13.96-13.96ZM1065.41,463.5c0-7.78-6.31-14.09-14.09-14.09s-14.09,6.31-14.09,14.09,6.31,14.09,14.09,14.09,14.09-6.31,14.09-14.09ZM1388.98,541.1c0-7.66-6.21-13.86-13.86-13.86s-13.86,6.21-13.86,13.86,6.21,13.86,13.86,13.86,13.86-6.21,13.86-13.86ZM1118.72,976.2c-7.6,0-13.77,6.16-13.77,13.77s6.16,13.77,13.77,13.77,13.77-6.16,13.77-13.77-6.16-13.77-13.77-13.77ZM1170.68,591.99c0-7.35-5.96-13.31-13.31-13.31s-13.31,5.96-13.31,13.31,5.96,13.31,13.31,13.31,13.31-5.96,13.31-13.31ZM1410.49,856.41c-7.45,0-13.49,6.04-13.49,13.49s6.04,13.49,13.49,13.49,13.49-6.04,13.49-13.49-6.04-13.49-13.49-13.49ZM1163.44,932.6c7.35,0,13.31-5.96,13.31-13.31s-5.96-13.31-13.31-13.31-13.31,5.96-13.31,13.31,5.96,13.31,13.31,13.31ZM1214.38,755.98c0-7.38-5.98-13.36-13.36-13.36s-13.36,5.98-13.36,13.36,5.98,13.36,13.36,13.36,13.36-5.98,13.36-13.36ZM1097.25,521.77c0,7.36,5.96,13.32,13.32,13.32s13.32-5.96,13.32-13.32-5.96-13.32-13.32-13.32-13.32,5.96-13.32,13.32ZM1192.07,853.57c7.33,0,13.28-5.95,13.28-13.28s-5.95-13.28-13.28-13.28-13.28,5.95-13.28,13.28,5.95,13.28,13.28,13.28ZM1406.59,661.6c7.25,0,13.13-5.88,13.13-13.13s-5.88-13.13-13.13-13.13-13.13,5.88-13.13,13.13,5.88,13.13,13.13,13.13ZM1419.14,746.39c-7.17,0-12.99,5.81-12.99,12.99s5.81,12.99,12.99,12.99,12.99-5.81,12.99-12.99-5.81-12.99-12.99-12.99ZM1188.32,683.49c7.16,0,12.97-5.81,12.97-12.97s-5.81-12.97-12.97-12.97-12.97,5.81-12.97,12.97,5.81,12.97,12.97,12.97Z"/>
  </g>
</svg>