<?xml version="1.0" encoding="UTF-8"?>
<svg id="Layer_1" xmlns="http://www.w3.org/2000/svg" xmlns:xlink="http://www.w3.org/1999/xlink" version="1.1" viewBox="0 0 3500 750">
  <!-- Generator: Adobe Illustrator 30.4.0, SVG Export Plug-In . SVG Version: 2.1.4 Build 226)  -->
  <defs>
    <style>
      .st0 {
        fill: url(#linear-gradient1);
      }

      .st1 {
        fill: url(#linear-gradient);
      }

      .st2 {
        fill: #fff;
      }
    </style>
    <linearGradient id="linear-gradient" x1="76.04" y1="375" x2="827.89" y2="375" gradientUnits="userSpaceOnUse">
      <stop offset="0" stop-color="#9776b5"/>
      <stop offset=".49" stop-color="#e2a477"/>
      <stop offset="1" stop-color="#f9bc28"/>
    </linearGradient>
    <linearGradient id="linear-gradient1" x1="1067.42" y1="566.6" x2="2133.55" y2="566.6" xlink:href="#linear-gradient"/>
  </defs>
  <path class="st1" d="M109.15,409.73c-18.29,0-33.12-14.83-33.12-33.12s14.83-33.12,33.12-33.12,33.12,14.83,33.12,33.12-14.83,33.12-33.12,33.12ZM126.77,295.78c17.85,0,32.31-14.47,32.31-32.31s-14.47-32.31-32.31-32.31-32.31,14.47-32.31,32.31,14.47,32.31,32.31,32.31ZM127.76,457.83c-17.23,0-31.2,13.97-31.2,31.2s13.97,31.2,31.2,31.2,31.2-13.97,31.2-31.2-13.97-31.2-31.2-31.2ZM178.75,194.06c16.67,0,30.18-13.51,30.18-30.18s-13.51-30.18-30.18-30.18-30.18,13.51-30.18,30.18,13.51,30.18,30.18,30.18ZM179.91,557.13c-15.51,0-28.08,12.57-28.08,28.08s12.57,28.08,28.08,28.08,28.08-12.57,28.08-28.08-12.57-28.08-28.08-28.08ZM256.65,117.5c15.09,0,27.32-12.23,27.32-27.32s-12.23-27.32-27.32-27.32-27.32,12.23-27.32,27.32,12.23,27.32,27.32,27.32ZM257.89,631.08c-13.76,0-24.91,11.15-24.91,24.91s11.15,24.91,24.91,24.91,24.91-11.15,24.91-24.91-11.15-24.91-24.91-24.91ZM347.53,70.72c13.25,0,23.99-10.74,23.99-23.99s-10.74-23.99-23.99-23.99-23.99,10.74-23.99,23.99,10.74,23.99,23.99,23.99ZM222.42,331.36c0-12.26-9.94-22.2-22.2-22.2s-22.2,9.94-22.2,22.2,9.94,22.2,22.2,22.2,22.2-9.94,22.2-22.2ZM346.44,677.56c-12.19,0-22.08,9.89-22.08,22.08s9.89,22.08,22.08,22.08,22.08-9.89,22.08-22.08-9.89-22.08-22.08-22.08ZM200.76,437.44c12.23,0,22.14-9.91,22.14-22.14s-9.91-22.14-22.14-22.14-22.14,9.91-22.14,22.14,9.91,22.14,22.14,22.14ZM224.77,274.3c12,0,21.73-9.73,21.73-21.73s-9.73-21.73-21.73-21.73-21.73,9.73-21.73,21.73,9.73,21.73,21.73,21.73ZM246.55,493.67c0-11.72-9.5-21.22-21.22-21.22s-21.22,9.5-21.22,21.22,9.5,21.22,21.22,21.22,21.22-9.5,21.22-21.22ZM249.15,187.69c0,11.6,9.41,21.01,21.01,21.01s21.01-9.41,21.01-21.01-9.41-21.01-21.01-21.01-21.01,9.41-21.01,21.01ZM269.93,538.63c-11.1,0-20.09,9-20.09,20.09s9,20.09,20.09,20.09,20.09-9,20.09-20.09-9-20.09-20.09-20.09ZM435.02,53.15c10.82,0,19.6-8.77,19.6-19.6s-8.77-19.6-19.6-19.6-19.6,8.77-19.6,19.6,8.77,19.6,19.6,19.6ZM332.36,159.43c10.7,0,19.37-8.67,19.37-19.37s-8.67-19.37-19.37-19.37-19.37,8.67-19.37,19.37,8.67,19.37,19.37,19.37ZM433.67,699.13c-10.19,0-18.46,8.26-18.46,18.46s8.26,18.46,18.46,18.46,18.46-8.26,18.46-18.46-8.26-18.46-18.46-18.46ZM349.39,607.58c0-10.19-8.26-18.46-18.46-18.46s-18.46,8.26-18.46,18.46,8.26,18.46,18.46,18.46,18.46-8.26,18.46-18.46ZM401.42,130.57c9.39,0,17-7.61,17-17s-7.61-17-17-17-17,7.61-17,17,7.61,17,17,17ZM398.96,620.2c-9.03,0-16.36,7.32-16.36,16.36s7.32,16.36,16.36,16.36,16.36-7.32,16.36-16.36-7.32-16.36-16.36-16.36ZM513.17,54.54c8.69,0,15.73-7.04,15.73-15.73s-7.04-15.73-15.73-15.73-15.73,7.04-15.73,15.73,7.04,15.73,15.73,15.73ZM328.21,504.84c-8.62,0-15.61,6.99-15.61,15.61s6.99,15.61,15.61,15.61,15.61-6.99,15.61-15.61-6.99-15.61-15.61-15.61ZM514.26,700.22c-8.56,0-15.51,6.94-15.51,15.51s6.94,15.51,15.51,15.51,15.51-6.94,15.51-15.51-6.94-15.51-15.51-15.51ZM292.28,457.27c-8.27,0-14.97,6.7-14.97,14.97s6.7,14.97,14.97,14.97,14.97-6.7,14.97-14.97-6.7-14.97-14.97-14.97ZM394.92,557.84c0-8.22-6.66-14.89-14.89-14.89s-14.89,6.66-14.89,14.89,6.66,14.89,14.89,14.89,14.89-6.66,14.89-14.89ZM291.24,307.17c0-8.19-6.64-14.84-14.84-14.84s-14.84,6.64-14.84,14.84,6.64,14.84,14.84,14.84,14.84-6.64,14.84-14.84ZM271.3,433.44c8.19,0,14.83-6.64,14.83-14.83s-6.64-14.83-14.83-14.83-14.83,6.64-14.83,14.83,6.64,14.83,14.83,14.83ZM467.76,121.34c8.17,0,14.79-6.62,14.79-14.79s-6.62-14.78-14.79-14.78-14.79,6.62-14.79,14.78,6.62,14.79,14.79,14.79ZM280.34,362.63c0-8.1-6.57-14.66-14.66-14.66s-14.66,6.57-14.66,14.66,6.57,14.66,14.66,14.66,14.66-6.57,14.66-14.66ZM302.44,272.06c8.07,0,14.61-6.54,14.61-14.61s-6.54-14.61-14.61-14.61-14.61,6.54-14.61,14.61,6.54,14.61,14.61,14.61ZM465.95,633.04c-7.94,0-14.38,6.44-14.38,14.38s6.44,14.38,14.38,14.38,14.38-6.44,14.38-14.38-6.44-14.38-14.38-14.38ZM355,215.85c0-7.78-6.31-14.09-14.09-14.09s-14.09,6.31-14.09,14.09,6.31,14.09,14.09,14.09,14.09-6.31,14.09-14.09ZM388.26,200.25c7.34,0,13.3-5.95,13.3-13.3s-5.95-13.3-13.3-13.3-13.3,5.95-13.3,13.3,5.95,13.3,13.3,13.3ZM584.8,688.17c-7.19,0-13.01,5.83-13.01,13.01s5.83,13.01,13.01,13.01,13.01-5.83,13.01-13.01-5.83-13.01-13.01-13.01ZM516.41,112.17c0,7.14,5.79,12.92,12.92,12.92s12.92-5.79,12.92-12.92-5.79-12.92-12.92-12.92-12.92,5.79-12.92,12.92ZM581.35,69.23c7.08,0,12.82-5.74,12.82-12.82s-5.74-12.82-12.82-12.82-12.82,5.74-12.82,12.82,5.74,12.82,12.82,12.82ZM435.53,566.27c-7.03,0-12.73,5.7-12.73,12.73s5.7,12.73,12.73,12.73,12.73-5.7,12.73-12.73-5.7-12.73-12.73-12.73ZM528.53,631.72c-7.01,0-12.69,5.68-12.69,12.69s5.68,12.69,12.69,12.69,12.69-5.68,12.69-12.69-5.68-12.69-12.69-12.69ZM439.63,160.09c-6.58,0-11.91,5.33-11.91,11.91s5.33,11.91,11.91,11.91,11.91-5.33,11.91-11.91-5.33-11.91-11.91-11.91ZM584.62,117.28c-6.45,0-11.69,5.23-11.69,11.69s5.23,11.69,11.69,11.69,11.69-5.23,11.69-11.69-5.23-11.69-11.69-11.69ZM584.91,641.41c6.35,0,11.49-5.14,11.49-11.49s-5.14-11.49-11.49-11.49-11.49,5.14-11.49,11.49,5.14,11.49,11.49,11.49ZM640.28,94.07c6.21,0,11.25-5.04,11.25-11.25s-5.04-11.25-11.25-11.25-11.25,5.04-11.25,11.25,5.04,11.25,11.25,11.25ZM645.02,664.58c-6.17,0-11.17,5-11.17,11.17s5,11.17,11.17,11.17,11.17-5,11.17-11.17-5-11.17-11.17-11.17ZM488.24,574.69c-6.01,0-10.87,4.87-10.87,10.87s4.87,10.87,10.87,10.87,10.87-4.87,10.87-10.87-4.87-10.87-10.87-10.87ZM646.09,604.62c0-5.91-4.79-10.7-10.7-10.7s-10.7,4.79-10.7,10.7,4.79,10.7,10.7,10.7,10.7-4.79,10.7-10.7ZM633.72,166.15c5.84,0,10.58-4.74,10.58-10.58s-4.74-10.58-10.58-10.58-10.58,4.74-10.58,10.58,4.74,10.58,10.58,10.58ZM489.85,180.01c5.64,0,10.21-4.57,10.21-10.21s-4.57-10.21-10.21-10.21-10.21,4.57-10.21,10.21,4.57,10.21,10.21,10.21ZM691.02,126c5.34,0,9.67-4.33,9.67-9.67s-4.33-9.67-9.67-9.67-9.67,4.33-9.67,9.67,4.33,9.67,9.67,9.67ZM696.41,633.34c-5.33,0-9.65,4.32-9.65,9.65s4.32,9.65,9.65,9.65,9.65-4.32,9.65-9.65-4.32-9.65-9.65-9.65ZM678.2,562.13c-5.33,0-9.65,4.32-9.65,9.65s4.32,9.65,9.65,9.65,9.65-4.32,9.65-9.65-4.32-9.65-9.65-9.65ZM537.35,570.96c-5.3,0-9.6,4.3-9.6,9.6s4.3,9.6,9.6,9.6,9.6-4.3,9.6-9.6-4.3-9.6-9.6-9.6ZM675.42,197.63c5.22,0,9.45-4.23,9.45-9.45s-4.23-9.45-9.45-9.45-9.45,4.23-9.45,9.45,4.23,9.45,9.45,9.45ZM708.44,237.35c5.19,0,9.39-4.2,9.39-9.39s-4.2-9.39-9.39-9.39-9.39,4.2-9.39,9.39,4.2,9.39,9.39,9.39ZM712.33,521.63c-5.09,0-9.22,4.13-9.22,9.22s4.13,9.22,9.22,9.22,9.22-4.13,9.22-9.22-4.13-9.22-9.22-9.22ZM527.36,177.02c0,5.05,4.1,9.15,9.15,9.15s9.15-4.1,9.15-9.15-4.1-9.15-9.15-9.15-9.15,4.1-9.15,9.15ZM743.79,273.7c0-5.03-4.08-9.11-9.11-9.11s-9.11,4.08-9.11,9.11,4.08,9.11,9.11,9.11,9.11-4.08,9.11-9.11ZM738.12,494.15c4.95,0,8.97-4.02,8.97-8.97s-4.02-8.97-8.97-8.97-8.97,4.02-8.97,8.97,4.02,8.97,8.97,8.97ZM754.53,425.37c-4.89,0-8.86,3.97-8.86,8.86s3.97,8.86,8.86,8.86,8.86-3.97,8.86-8.86-3.97-8.86-8.86-8.86ZM591.19,564.61c0-4.87-3.95-8.83-8.83-8.83s-8.83,3.95-8.83,8.83,3.95,8.83,8.83,8.83,8.83-3.95,8.83-8.83ZM752.63,333.62c4.89,0,8.86-3.97,8.86-8.86s-3.97-8.86-8.86-8.86-8.86,3.97-8.86,8.86,3.97,8.86,8.86,8.86ZM733.77,166.14c4.75,0,8.6-3.85,8.6-8.6s-3.85-8.6-8.6-8.6-8.6,3.85-8.6,8.6,3.85,8.6,8.6,8.6ZM739.68,593.29c-4.71,0-8.53,3.82-8.53,8.53s3.82,8.53,8.53,8.53,8.53-3.82,8.53-8.53-3.82-8.53-8.53-8.53ZM759.41,371.17c-4.74,0-8.58,3.84-8.58,8.58s3.84,8.58,8.58,8.58,8.58-3.84,8.58-8.58-3.84-8.58-8.58-8.58ZM579.47,201.63c4.64,0,8.4-3.76,8.4-8.4s-3.76-8.4-8.4-8.4-8.4,3.76-8.4,8.4,3.76,8.4,8.4,8.4ZM630.14,540.11c0-4.5-3.65-8.15-8.15-8.15s-8.15,3.65-8.15,8.15,3.65,8.15,8.15,8.15,8.15-3.65,8.15-8.15ZM767.92,212.47c4.42,0,8.01-3.58,8.01-8.01s-3.58-8.01-8.01-8.01-8.01,3.58-8.01,8.01,3.58,8.01,8.01,8.01ZM773.4,545.8c-4.45,0-8.05,3.61-8.05,8.05s3.61,8.05,8.05,8.05,8.05-3.61,8.05-8.05-3.61-8.05-8.05-8.05ZM799.42,491.8c-4.25,0-7.7,3.45-7.7,7.7s3.45,7.7,7.7,7.7,7.7-3.45,7.7-7.7-3.45-7.7-7.7-7.7ZM625.79,217.11c0-4.29-3.48-7.77-7.77-7.77s-7.77,3.48-7.77,7.77,3.48,7.77,7.77,7.77,7.77-3.48,7.77-7.77ZM804.11,259.87c0-4.22-3.42-7.64-7.64-7.64s-7.64,3.42-7.64,7.64,3.42,7.64,7.64,7.64,7.64-3.42,7.64-7.64ZM655.17,499.66c-4.19,0-7.59,3.4-7.59,7.59s3.4,7.59,7.59,7.59,7.59-3.4,7.59-7.59-3.4-7.59-7.59-7.59ZM683.8,287.92c0-4.05-3.28-7.34-7.34-7.34s-7.34,3.28-7.34,7.34,3.28,7.34,7.34,7.34,7.34-3.28,7.34-7.34ZM815.96,433.65c-4.11,0-7.44,3.33-7.44,7.44s3.33,7.44,7.44,7.44,7.44-3.33,7.44-7.44-3.33-7.44-7.44-7.44ZM679.81,475.63c4.05,0,7.34-3.28,7.34-7.34s-3.28-7.34-7.34-7.34-7.34,3.28-7.34,7.34,3.28,7.34,7.34,7.34ZM707.89,378.3c0-4.07-3.3-7.36-7.36-7.36s-7.36,3.3-7.36,7.36,3.3,7.36,7.36,7.36,7.36-3.3,7.36-7.36ZM643.34,249.22c0,4.05,3.29,7.34,7.34,7.34s7.34-3.29,7.34-7.34-3.29-7.34-7.34-7.34-7.34,3.29-7.34,7.34ZM695.59,432.08c4.04,0,7.32-3.28,7.32-7.32s-3.28-7.32-7.32-7.32-7.32,3.28-7.32,7.32,3.28,7.32,7.32,7.32ZM813.82,326.28c4,0,7.24-3.24,7.24-7.24s-3.24-7.24-7.24-7.24-7.24,3.24-7.24,7.24,3.24,7.24,7.24,7.24ZM820.73,373.01c-3.95,0-7.16,3.2-7.16,7.16s3.2,7.16,7.16,7.16,7.16-3.2,7.16-7.16-3.2-7.16-7.16-7.16ZM693.53,338.34c3.95,0,7.15-3.2,7.15-7.15s-3.2-7.15-7.15-7.15-7.15,3.2-7.15,7.15,3.2,7.15,7.15,7.15Z"/>
  <g>
    <path class="st2" d="M1269.58,375.1h-202.15V96.11h43.35v239.75h158.81v39.24Z"/>
    <path class="st2" d="M1380.84,274.23V96.11h42.73v176.27c0,40.88,29.17,66.77,74.58,66.77s74.37-25.89,74.37-66.77V96.11h42.73v178.12c0,63.89-45.61,104.98-117.1,104.98s-117.31-41.09-117.31-104.98Z"/>
    <path class="st2" d="M1768.64,96.11h51.16l96.35,198.46,96.56-198.46h50.95v278.99h-43.55v-199.9l-88.55,180.17h-30.82l-88.55-180.17v199.9h-43.55V96.11Z"/>
    <path class="st2" d="M2263.26,375.1h-43.14V96.11h43.14v278.99Z"/>
    <path class="st2" d="M2419.72,375.1V96.11h43.14l169.9,212.63V96.11h43.14v278.99h-43.55l-169.49-210.58v210.58h-43.14Z"/>
    <path class="st2" d="M2798.27,375.1l115.25-278.99h46.84l115.25,278.99h-46.02l-22.19-58.14h-140.93l-22.19,58.14h-46.02ZM2994.47,281.01l-57.52-136.62-57.52,136.62h115.05Z"/>
    <path class="st2" d="M3317.96,96.31c57.52,0,94.91,32.46,94.91,84.64,0,38.21-21.98,66.56-56.5,78.68l67.59,115.46h-50.13l-63.07-109.5h-69.64v109.5h-43.14V96.31h119.98ZM3241.12,135.14v92.04h74.78c34.31,0,51.98-19.11,51.98-46.22s-17.67-45.81-51.98-45.81h-74.78Z"/>
  </g>
  <path class="st0" d="M1138.93,481.71l-71.5,169.29h18.81l21.06-51.01h82.45l21.06,51.01h18.81l-71.5-169.29h-19.2ZM1113.03,586.11l34.82-84.32h1.35l34.82,84.32h-70.99ZM1496.88,488.61c-9.37-4.6-21.03-6.9-34.98-6.9h-63.44v169.29h17.95v-64.72h45.78c13.88,0,25.5-2.3,34.84-6.9,9.34-4.6,16.38-10.85,21.12-18.76,4.73-7.91,7.1-16.79,7.1-26.66s-2.39-18.74-7.15-26.62c-4.77-7.88-11.84-14.12-21.21-18.73ZM1502.54,553.71c-3.36,5.79-8.43,10.35-15.21,13.68-6.78,3.34-15.32,5-25.63,5h-45.3v-76.79h45.01c10.43,0,19.05,1.65,25.87,4.96,6.82,3.31,11.9,7.85,15.26,13.64,3.36,5.79,5.04,12.37,5.04,19.76s-1.68,13.97-5.04,19.75ZM1801.03,488.61c-9.37-4.6-21.03-6.9-34.98-6.9h-63.44v169.29h17.95v-64.72h45.78c13.88,0,25.5-2.3,34.84-6.9,9.34-4.6,16.38-10.85,21.12-18.76,4.73-7.91,7.1-16.79,7.1-26.66s-2.39-18.74-7.15-26.62c-4.77-7.88-11.84-14.12-21.21-18.73ZM1806.7,553.71c-3.36,5.79-8.43,10.35-15.21,13.68-6.78,3.34-15.32,5-25.63,5h-45.3v-76.79h45.01c10.43,0,19.05,1.65,25.87,4.96,6.82,3.31,11.9,7.85,15.26,13.64,3.36,5.79,5.04,12.37,5.04,19.76s-1.68,13.97-5.04,19.75ZM2133.55,606.03c0,9.04-2.72,17.17-8.16,24.39-5.44,7.22-13.24,12.94-23.42,17.15-10.17,4.22-22.36,6.33-36.57,6.33-13.37,0-24.99-1.92-34.84-5.75-9.85-3.83-17.59-9.13-23.23-15.91-5.63-6.78-8.8-14.63-9.5-23.56h18.43c.64,6.67,3.2,12.32,7.68,16.95,4.48,4.63,10.3,8.14,17.47,10.54,7.16,2.4,15.16,3.6,23.99,3.6,9.79,0,18.51-1.42,26.16-4.26,7.64-2.84,13.66-6.81,18.04-11.91,4.38-5.1,6.57-11.04,6.57-17.81,0-5.73-1.73-10.54-5.18-14.43-3.45-3.88-8.27-7.15-14.44-9.79-6.18-2.65-13.33-4.99-21.45-7.03l-23.51-5.95c-15.42-3.97-27.39-9.45-35.9-16.45-8.51-7-12.76-15.93-12.76-26.78,0-9.09,2.83-17.1,8.5-24.02,5.66-6.91,13.34-12.32,23.03-16.2,9.7-3.89,20.59-5.83,32.68-5.83s23.04,1.93,32.44,5.79c9.41,3.86,16.88,9.17,22.41,15.91,5.54,6.75,8.5,14.42,8.88,23.02h-17.37c-1.09-9.42-5.92-16.92-14.49-22.48-8.57-5.57-19.36-8.35-32.35-8.35-9.15,0-17.2,1.35-24.14,4.05-6.94,2.7-12.38,6.44-16.31,11.2-3.94,4.77-5.9,10.18-5.9,16.25,0,4.46,1.12,8.38,3.36,11.74,2.24,3.36,5.26,6.24,9.07,8.64,3.8,2.4,8.03,4.45,12.67,6.16,4.64,1.7,9.32,3.14,14.06,4.3l20.73,5.13c6.27,1.49,12.54,3.39,18.81,5.7,6.27,2.32,12.01,5.22,17.23,8.72,5.21,3.5,9.41,7.77,12.57,12.82,3.17,5.04,4.75,11.09,4.75,18.14Z"/>
</svg>